<mxfile host="app.diagrams.net" modified="2023-07-17T07:12:24.941Z" agent="Mozilla/5.0 (Windows NT 10.0; Win64; x64) AppleWebKit/537.36 (KHTML, like Gecko) Chrome/114.0.0.0 Safari/537.36" version="21.6.2" etag="u193jro3gnfaBHZEV9Wn" type="github">
  <diagram name="第 1 页" id="B7MiTPuu0Z3A3DPikGXD">
    <mxGraphModel>
      <root>
        <mxCell id="0" />
        <mxCell id="1" parent="0" />
      </root>
    </mxGraphModel>
  </diagram>
</mxfile>
